<?xml version="1.0" encoding="UTF-8"?>
<svg width="151px" height="36px" viewBox="0 0 151 36" version="1.1" xmlns="http://www.w3.org/2000/svg" xmlns:xlink="http://www.w3.org/1999/xlink">
    <!-- Generator: sketchtool 40.3 (33839) - http://www.bohemiancoding.com/sketch -->
    <title>EBF1CD71-A628-475E-9562-4B09A0E503C2</title>
    <desc>Created with sketchtool.</desc>
    <defs></defs>
    <g id="Site" stroke="none" stroke-width="1" fill="none" fill-rule="evenodd">
        <g id="hub3c_main" transform="translate(-25.000000, -17.000000)">
            <g id="header-start">
                <g id="logo-light" transform="translate(25.000000, 17.000000)">
                    <path d="M47.388,29.9155 C47.172,29.6995 47.064,29.3755 47.064,28.9435 L47.064,6.7315 C47.064,6.3715 47.123,6.1195 47.243,5.9765 C47.364,5.8315 47.616,5.7595 47.999,5.7595 L50.484,5.7595 C50.867,5.7595 51.125,5.8315 51.258,5.9765 C51.389,6.1195 51.455,6.3715 51.455,6.7315 L51.455,14.7955 C52.247,14.0035 53.171,13.4095 54.228,13.0145 C55.284,12.6175 56.532,12.4195 57.972,12.4195 C59.915,12.4195 61.482,12.9415 62.67,13.9855 C63.858,15.0295 64.451,16.5965 64.451,18.6845 L64.451,28.9435 C64.451,29.3755 64.349,29.6995 64.146,29.9155 C63.942,30.1315 63.6,30.2395 63.119,30.2395 L61.212,30.2395 C60.732,30.2395 60.384,30.1315 60.167,29.9155 C59.951,29.6995 59.844,29.3755 59.844,28.9435 L59.844,18.9725 C59.844,17.7965 59.562,16.9625 58.997,16.4705 C58.434,15.9775 57.576,15.7315 56.424,15.7315 C55.632,15.7315 54.869,15.8885 54.138,16.1995 C53.406,16.5125 52.812,16.9435 52.356,17.4955 C51.9,18.0485 51.672,18.6845 51.672,19.4035 L51.672,28.9435 C51.672,29.3755 51.57,29.6995 51.366,29.9155 C51.161,30.1315 50.808,30.2395 50.304,30.2395 L48.432,30.2395 C47.951,30.2395 47.604,30.1315 47.388,29.9155" id="Fill-1" fill="#00AEEF"></path>
                    <path d="M70.1399,29.1421 C68.9399,28.0501 68.3399,26.4231 68.3399,24.2641 L68.3399,14.2911 C68.3399,13.8361 68.4419,13.4991 68.6459,13.2841 C68.8499,13.0681 69.1919,12.9591 69.6719,12.9591 L71.5789,12.9591 C72.0599,12.9591 72.4079,13.0681 72.6229,13.2841 C72.8399,13.4991 72.9479,13.8361 72.9479,14.2911 L72.9479,24.1561 C72.9479,25.3081 73.2469,26.1541 73.8479,26.6941 C74.4479,27.2341 75.3349,27.5031 76.5119,27.5031 C77.7589,27.5031 78.8029,27.1561 79.6439,26.4591 C80.4839,25.7641 80.9039,24.8641 80.9039,23.7591 L80.9039,14.2911 C80.9039,13.8361 81.0119,13.4991 81.2279,13.2841 C81.4439,13.0681 81.7909,12.9591 82.2719,12.9591 L84.1439,12.9591 C84.6229,12.9591 84.9719,13.0681 85.1879,13.2841 C85.4039,13.4991 85.5119,13.8361 85.5119,14.2911 L85.5119,29.2681 C85.5119,29.6521 85.4519,29.9101 85.3309,30.0411 C85.2109,30.1741 84.9589,30.2401 84.5759,30.2401 L82.5599,30.2401 C82.2949,30.2401 82.1039,30.1861 81.9839,30.0781 C81.8639,29.9701 81.7909,29.7961 81.7679,29.5561 L81.6229,28.0431 C79.9919,29.8681 77.7469,30.7801 74.8919,30.7801 C72.9229,30.7801 71.3389,30.2341 70.1399,29.1421" id="Fill-3" fill="#00AEEF"></path>
                    <path d="M102.4505,25.9019 C103.3975,24.8349 103.8725,23.2079 103.8725,21.0239 C103.8725,19.1999 103.4945,17.8619 102.7375,17.0089 C101.9815,16.1579 100.7165,15.7319 98.9395,15.7319 C97.7165,15.7319 96.6365,16.0379 95.7005,16.6499 C94.7635,17.2619 94.2965,18.1559 94.2965,19.3319 L94.2965,26.6399 C94.7035,26.9039 95.2555,27.1139 95.9525,27.2699 C96.6475,27.4259 97.3445,27.5039 98.0405,27.5039 C100.0315,27.5039 101.5015,26.9699 102.4505,25.9019 M93.4685,30.1139 C91.9075,29.6709 90.6725,29.1119 89.7605,28.4399 L89.7605,7.0909 C89.7605,6.6359 89.8615,6.2989 90.0655,6.0839 C90.2695,5.8679 90.6115,5.7589 91.0925,5.7589 L92.9285,5.7589 C93.4075,5.7589 93.7565,5.8679 93.9715,6.0839 C94.1875,6.2989 94.2965,6.6359 94.2965,7.0909 L94.2965,14.1119 C94.9205,13.5599 95.7355,13.1399 96.7445,12.8519 C97.7525,12.5639 98.8325,12.4199 99.9835,12.4199 C102.6955,12.4199 104.7835,13.1639 106.2485,14.6519 C107.7115,16.1399 108.4435,18.2279 108.4435,20.9159 C108.4435,24.0359 107.5855,26.4599 105.8705,28.1879 C104.1535,29.9159 101.6155,30.7799 98.2565,30.7799 C96.6235,30.7799 95.0275,30.5569 93.4685,30.1139" id="Fill-5" fill="#00AEEF"></path>
                    <path d="M111.5755,28.9077 C111.3595,28.7637 111.2525,28.5957 111.2525,28.4037 C111.2525,28.2597 111.3115,28.0927 111.4315,27.8997 L112.4755,26.1367 C112.6205,25.8957 112.7515,25.7757 112.8725,25.7757 C112.9675,25.7757 113.1365,25.8357 113.3765,25.9557 C114.1685,26.3877 115.0865,26.7357 116.1305,26.9997 C117.1745,27.2637 118.3075,27.3957 119.5315,27.3957 C121.4995,27.3957 122.9455,27.0177 123.8705,26.2617 C124.7935,25.5057 125.2565,24.4567 125.2565,23.1117 C125.2565,20.6157 123.7315,19.3677 120.6835,19.3677 L117.6595,19.3677 C117.1795,19.3677 116.8375,19.2657 116.6345,19.0617 C116.4295,18.8577 116.3285,18.5277 116.3285,18.0717 L116.3285,17.1367 C116.3285,16.7037 116.4295,16.3917 116.6345,16.1997 C116.8375,16.0087 117.1795,15.9117 117.6595,15.9117 L120.6115,15.9117 C121.9075,15.9117 122.8805,15.5697 123.5275,14.8867 C124.1765,14.2017 124.5005,13.3327 124.5005,12.2757 C124.5005,9.8517 122.7955,8.6397 119.3875,8.6397 C117.2755,8.6397 115.4155,9.0847 113.8075,9.9717 C113.5675,10.0927 113.3995,10.1517 113.3045,10.1517 C113.1835,10.1517 113.0525,10.0437 112.9075,9.8277 L111.8995,8.1367 C111.7795,7.9437 111.7205,7.7757 111.7205,7.6317 C111.7205,7.4397 111.8285,7.2717 112.0445,7.1277 C112.8845,6.5277 113.9995,6.0597 115.3915,5.7237 C116.7835,5.3877 118.3315,5.2207 120.0365,5.2207 C121.8845,5.2207 123.4855,5.5077 124.8425,6.0837 C126.1975,6.6597 127.2415,7.4707 127.9735,8.5137 C128.7055,9.5577 129.0715,10.7757 129.0715,12.1677 C129.0715,13.2967 128.8025,14.3407 128.2625,15.2997 C127.7215,16.2607 126.9475,17.0047 125.9395,17.5317 C127.2355,18.0117 128.2015,18.7507 128.8385,19.7457 C129.4735,20.7417 129.7925,21.9117 129.7925,23.2557 C129.7925,25.5117 128.9575,27.3297 127.2905,28.7097 C125.6215,30.0907 123.2525,30.7797 120.1795,30.7797 C116.2925,30.7797 113.4245,30.1557 111.5755,28.9077" id="Fill-7" fill="#FFFFFF"></path>
                    <path d="M135.2815,28.4214 C133.4935,26.8504 132.5995,24.6004 132.5995,21.6714 C132.5995,19.8484 133.0075,18.2394 133.8235,16.8484 C134.6385,15.4564 135.8085,14.3694 137.3335,13.5894 C138.8575,12.8104 140.6385,12.4194 142.6795,12.4194 C144.1915,12.4194 145.4745,12.5644 146.5315,12.8524 C147.5875,13.1404 148.5715,13.6084 149.4835,14.2554 C149.6995,14.4004 149.8075,14.5564 149.8075,14.7244 C149.8075,14.8674 149.7475,15.0354 149.6275,15.2284 L148.6555,16.9194 C148.5115,17.1594 148.3795,17.2794 148.2605,17.2794 C148.1385,17.2794 147.9715,17.2074 147.7555,17.0644 C147.0105,16.6084 146.2735,16.2664 145.5415,16.0374 C144.8085,15.8104 143.9395,15.6954 142.9315,15.6954 C141.1315,15.6954 139.7155,16.2304 138.6835,17.2974 C137.6515,18.3654 137.1355,19.8234 137.1355,21.6714 C137.1355,23.6154 137.6515,25.0734 138.6835,26.0454 C139.7155,27.0184 141.2265,27.5034 143.2195,27.5034 C144.2275,27.5034 145.1035,27.3844 145.8475,27.1444 C146.5915,26.9034 147.3105,26.5564 148.0075,26.1004 C148.1995,25.9804 148.3545,25.9194 148.4755,25.9194 C148.6195,25.9194 148.7635,26.0404 148.9075,26.2794 L149.9515,28.0434 C150.0475,28.1644 150.0955,28.2954 150.0955,28.4404 C150.0955,28.6084 149.9745,28.7754 149.7355,28.9434 C148.7755,29.5674 147.7435,30.0294 146.6395,30.3294 C145.5355,30.6294 144.2395,30.7794 142.7515,30.7794 C139.5595,30.7794 137.0695,29.9934 135.2815,28.4214" id="Fill-9" fill="#FFFFFF"></path>
                    <path d="M21.3968,0.3421 C20.3008,0.1321 19.1768,0.0001 18.0188,0.0001 C18.0128,0.0001 18.0068,0.0011 17.9998,0.0011 C17.9938,0.0011 17.9878,0.0001 17.9808,0.0001 C16.8238,0.0001 15.6998,0.1321 14.6028,0.3421 C14.0618,0.5331 14.1858,1.0691 14.2658,1.4291 C14.7258,3.4201 16.8708,11.7331 17.0158,12.2881 C17.1718,12.8891 17.6078,14.5001 17.9808,14.5001 C17.9868,14.5001 17.9938,14.4911 17.9998,14.4901 C18.0058,14.4911 18.0128,14.5001 18.0188,14.5001 C18.3928,14.5001 18.8278,12.8891 18.9838,12.2881 C19.1288,11.7331 21.2738,3.4201 21.7338,1.4291 C21.8138,1.0691 21.9378,0.5331 21.3968,0.3421" id="Fill-11" fill="#FFFFFF"></path>
                    <path d="M21.3968,35.6579 C20.3008,35.8679 19.1768,35.9999 18.0188,35.9999 C18.0128,35.9999 18.0068,35.9989 17.9998,35.9989 C17.9938,35.9989 17.9878,35.9999 17.9808,35.9999 C16.8238,35.9999 15.6998,35.8679 14.6028,35.6579 C14.0618,35.4669 14.1858,34.9309 14.2658,34.5709 C14.7258,32.5799 16.8708,24.2669 17.0158,23.7119 C17.1718,23.1109 17.6078,21.4999 17.9808,21.4999 C17.9868,21.4999 17.9938,21.5089 17.9998,21.5099 C18.0058,21.5089 18.0128,21.4999 18.0188,21.4999 C18.3928,21.4999 18.8278,23.1109 18.9838,23.7119 C19.1288,24.2669 21.2738,32.5799 21.7338,34.5709 C21.8138,34.9309 21.9378,35.4669 21.3968,35.6579" id="Fill-13" fill="#88C642"></path>
                    <path d="M7.9159,3.1121 C6.9919,3.7381 6.1039,4.4401 5.2859,5.2591 C5.2809,5.2631 5.2769,5.2681 5.2729,5.2731 C5.2679,5.2771 5.2629,5.2811 5.2589,5.2851 C4.4399,6.1041 3.7389,6.9921 3.1119,7.9161 C2.8649,8.4341 3.3319,8.7251 3.6419,8.9231 C5.3749,10.0051 12.7709,14.3671 13.2659,14.6571 C13.8009,14.9711 15.2479,15.8031 15.5119,15.5381 C15.5159,15.5341 15.5149,15.5231 15.5189,15.5181 C15.5239,15.5151 15.5339,15.5161 15.5389,15.5121 C15.8029,15.2471 14.9709,13.8011 14.6569,13.2651 C14.3669,12.7701 10.0059,5.3751 8.9229,3.6421 C8.7249,3.3321 8.4339,2.8641 7.9159,3.1121" id="Fill-15" fill="#00AEEF"></path>
                    <path d="M32.8879,28.0841 C32.2619,29.0081 31.5599,29.8961 30.7409,30.7141 C30.7369,30.7191 30.7319,30.7231 30.7269,30.7271 C30.7229,30.7321 30.7189,30.7371 30.7149,30.7411 C29.8959,31.5601 29.0079,32.2611 28.0839,32.8881 C27.5659,33.1351 27.2749,32.6681 27.0769,32.3581 C25.9949,30.6251 21.6329,23.2291 21.3429,22.7341 C21.0289,22.1991 20.1969,20.7521 20.4619,20.4881 C20.4659,20.4841 20.4769,20.4851 20.4819,20.4811 C20.4849,20.4761 20.4839,20.4661 20.4879,20.4611 C20.7529,20.1971 22.1989,21.0291 22.7349,21.3431 C23.2299,21.6331 30.6249,25.9941 32.3579,27.0771 C32.6679,27.2751 33.1359,27.5661 32.8879,28.0841" id="Fill-17" fill="#88C642"></path>
                    <path d="M0.3421,14.6032 C0.1321,15.6992 0.0001,16.8232 0.0001,17.9812 C0.0001,17.9872 0.0011,17.9932 0.0011,18.0002 C0.0011,18.0062 0.0001,18.0122 0.0001,18.0192 C0.0001,19.1762 0.1321,20.3002 0.3421,21.3972 C0.5331,21.9382 1.0691,21.8142 1.4291,21.7342 C3.4201,21.2742 11.7331,19.1292 12.2881,18.9842 C12.8891,18.8282 14.5001,18.3922 14.5001,18.0192 C14.5001,18.0132 14.4911,18.0062 14.4901,18.0002 C14.4911,17.9942 14.5001,17.9872 14.5001,17.9812 C14.5001,17.6072 12.8891,17.1722 12.2881,17.0162 C11.7331,16.8712 3.4201,14.7262 1.4291,14.2662 C1.0691,14.1862 0.5331,14.0622 0.3421,14.6032" id="Fill-19" fill="#00AEEF"></path>
                    <path d="M35.6579,14.6032 C35.8679,15.6992 35.9999,16.8232 35.9999,17.9812 C35.9999,17.9872 35.9989,17.9932 35.9989,18.0002 C35.9989,18.0062 35.9999,18.0122 35.9999,18.0192 C35.9999,19.1762 35.8679,20.3002 35.6579,21.3972 C35.4669,21.9382 34.9309,21.8142 34.5709,21.7342 C32.5799,21.2742 24.2669,19.1292 23.7119,18.9842 C23.1109,18.8282 21.4999,18.3922 21.4999,18.0192 C21.4999,18.0132 21.5089,18.0062 21.5099,18.0002 C21.5089,17.9942 21.4999,17.9872 21.4999,17.9812 C21.4999,17.6072 23.1109,17.1722 23.7119,17.0162 C24.2669,16.8712 32.5799,14.7262 34.5709,14.2662 C34.9309,14.1862 35.4669,14.0622 35.6579,14.6032" id="Fill-21" fill="#00AEEF"></path>
                    <path d="M3.1121,28.0841 C3.7381,29.0081 4.4401,29.8961 5.2591,30.7141 C5.2631,30.7191 5.2681,30.7231 5.2731,30.7271 C5.2771,30.7321 5.2811,30.7371 5.2851,30.7411 C6.1041,31.5601 6.9921,32.2611 7.9161,32.8881 C8.4341,33.1351 8.7251,32.6681 8.9231,32.3581 C10.0051,30.6251 14.3671,23.2291 14.6571,22.7341 C14.9711,22.1991 15.8031,20.7521 15.5381,20.4881 C15.5341,20.4841 15.5231,20.4851 15.5181,20.4811 C15.5151,20.4761 15.5161,20.4661 15.5121,20.4611 C15.2471,20.1971 13.8011,21.0291 13.2651,21.3431 C12.7701,21.6331 5.3751,25.9941 3.6421,27.0771 C3.3321,27.2751 2.8641,27.5661 3.1121,28.0841" id="Fill-23" fill="#FFFFFF"></path>
                    <path d="M28.0841,3.1121 C29.0081,3.7381 29.8961,4.4401 30.7141,5.2591 C30.7191,5.2631 30.7231,5.2681 30.7271,5.2731 C30.7321,5.2771 30.7371,5.2811 30.7411,5.2851 C31.5601,6.1041 32.2611,6.9921 32.8881,7.9161 C33.1351,8.4341 32.6681,8.7251 32.3581,8.9231 C30.6251,10.0051 23.2291,14.3671 22.7341,14.6571 C22.1991,14.9711 20.7521,15.8031 20.4881,15.5381 C20.4841,15.5341 20.4851,15.5231 20.4811,15.5181 C20.4761,15.5151 20.4661,15.5161 20.4611,15.5121 C20.1971,15.2471 21.0291,13.8011 21.3431,13.2651 C21.6331,12.7701 25.9941,5.3751 27.0771,3.6421 C27.2751,3.3321 27.5661,2.8641 28.0841,3.1121" id="Fill-25" fill="#88C642"></path>
                </g>
            </g>
        </g>
    </g>
</svg>